<svg id="Layer_35" enable-background="new 0 0 64 64" height="512" viewBox="0 0 64 64" width="512" xmlns="http://www.w3.org/2000/svg"><g fill="#f0bc5e"><path d="m41 32c0-1.105.895-2 2-2-1.105 0-2-.895-2-2s.895-2 2-2h1.007l-.124-1h-34.883c-1.103 0-2 .897-2 2v22c0 1.103.897 2 2 2h34c1.103 0 2-.897 2-2v-15h-2c-1.105 0-2-.895-2-2z"/><path d="m57 30h-14c-1.105 0-2-.895-2-2 0-1.105.895-2 2-2h14c1.105 0 2 .895 2 2 0 1.105-.895 2-2 2z"/><path d="m57 34h-14c-1.105 0-2-.895-2-2 0-1.105.895-2 2-2h14c1.105 0 2 .895 2 2 0 1.105-.895 2-2 2z"/></g><path d="m57.622 25.067c.293-.543.673-1.049 1.153-1.488 2.685-2.457 4.225-5.948 4.225-9.579 0-3.566-1.415-6.893-3.985-9.367-2.569-2.473-5.953-3.765-9.522-3.624-6.731.257-12.334 5.948-12.489 12.686-.059 2.616.686 5.147 2.072 7.304h-31.076c-2.757 0-5 2.243-5 5v27h-2v5c0 2.757 2.243 5 5 5h40c2.757 0 5-2.243 5-5v-5h-2v-12.079c.328.047.66.08 1 .08 3.519 0 6.432-2.613 6.92-6h.08c1.654 0 3-1.346 3-3 0-.771-.301-1.468-.78-2 .48-.532.78-1.229.78-2 0-1.441-1.022-2.646-2.378-2.933zm.378 2.933c0 .551-.448 1-1 1h-14c-.552 0-1-.449-1-1s.448-1 1-1h14c.552 0 1 .449 1 1zm-8.432-24.992c3.032-.116 5.886.974 8.06 3.066 2.175 2.094 3.372 4.908 3.372 7.926 0 3.071-1.303 6.024-3.575 8.103-.896.82-1.556 1.814-1.964 2.897h-4.461v-9h-2v9h-4.428c-.395-1.064-1.046-2.039-1.938-2.844-2.381-2.146-3.704-5.213-3.631-8.414.131-5.701 4.87-10.516 10.565-10.734zm-.568 54.992c0 1.654-1.346 3-3 3h-40c-1.654 0-3-1.346-3-3v-3h46zm-2-5h-42v-27c0-1.654 1.346-3 3-3h32.656c.209.217.413.438.638.641.465.419.832.902 1.114 1.419-1.371.275-2.408 1.488-2.408 2.94 0 .771.301 1.468.78 2-.48.532-.78 1.229-.78 2 0 1.654 1.346 3 3 3h.08c.339 2.353 1.848 4.326 3.92 5.315zm3-14c-2.414 0-4.434-1.721-4.899-4h9.798c-.465 2.279-2.485 4-4.899 4zm7-6h-14c-.552 0-1-.449-1-1s.448-1 1-1h14c.552 0 1 .449 1 1s-.448 1-1 1z"/><path d="m21 57h10v2h-10z"/><path d="m33 57h2v2h-2z"/><path d="m17 57h2v2h-2z"/><path d="m35 33h-2v-2.883l-8.876-1.109-3.124-.008v4h-1.618l-2.419 4.837.794 5.163h-6.757v2h7.065l.947 6.152 1.977-.304-1.951-12.686 1.58-3.162h12.382v16h2v-6h6v-2h-6zm-12-2h.938l7.062.883v1.117h-8z"/><path d="m29 37h2v2h-2z"/><path d="m29 41h2v2h-2z"/><path d="m25 37h2v2h-2z"/><path d="m25 41h2v2h-2z"/><path d="m29 45h2v2h-2z"/><path d="m57 14h2c0-4.962-4.037-9-9-9v2c3.859 0 7 3.14 7 7z"/><path d="m25 45h2v2h-2z"/><path d="m21 37h2v2h-2z"/><path d="m21 41h2v2h-2z"/><path d="m21 45h2v2h-2z"/><path d="m39 39h2v2h-2z"/><path d="m39 35h2v2h-2z"/><path d="m11 35h2v2h-2z"/><path d="m11 39h2v2h-2z"/><path d="m50 17c-1.654 0-3-1.346-3-3s1.346-3 3-3 3 1.346 3 3-1.346 3-3 3z" fill="#f0bc5e"/></svg>