<svg id="Layer_35" enable-background="new 0 0 64 64" height="512" viewBox="0 0 64 64" width="512" xmlns="http://www.w3.org/2000/svg"><g fill="#f0bc5e"><path d="m23 62h-10v-13h10z"/><path d="m18 45c-2.206 0-4-1.794-4-4s1.794-4 4-4 4 1.794 4 4-1.794 4-4 4z"/><path d="m50 55h-13v-10h18v5h-5z"/></g><path d="m57.877 19.537 5.537-5.537-13.414-13.414-6.501 6.501-5.878 1.306c-2.043.455-3.907 1.479-5.387 2.959l-3.527 3.527c-1.085 1.085-1.707 2.587-1.707 4.121 0 .685.13 1.362.365 2h-2.365v9.53l-3.505-2.435c-2.061-1.432-4.929-1.432-6.989 0l-12.23 8.496c-.799.555-1.276 1.467-1.276 2.439 0 1.638 1.332 2.97 2.97 2.97h1.03v19h-2v2h30v-2h-2v-2h19.414l8.586-8.586v-29.414h-1.597zm-27.756-3.244 3.527-3.527c1.211-1.211 2.735-2.048 4.407-2.42l6.446-1.433 5.499-5.499 10.586 10.586-4.463 4.463-.822 2.537h-17.887l-2-2h2.444c2.938 0 5.7-1.145 7.778-3.222l1.571-1.571-1.414-1.414-1.571 1.571c-1.7 1.699-3.96 2.636-6.364 2.636h-3.272l-2 2 6.879 6.879c.34.341.535.811.535 1.293 0 1.008-.82 1.828-1.829 1.828-.488 0-.948-.19-1.293-.535l-6.757-6.758c-.712-.713-1.121-1.699-1.121-2.707s.409-1.994 1.121-2.707zm-3.121 6.707h1.598c.037.04.071.083.109.121l6.758 6.758c.723.723 1.684 1.121 2.706 1.121 2.112 0 3.829-1.718 3.829-3.828 0-1.023-.398-1.984-1.122-2.707l-1.464-1.465h17.586v26h-8v8h-22zm28.586 28-4.586 4.586v-4.586zm-51.616-11c-.535 0-.97-.435-.97-.97 0-.317.156-.615.417-.797l12.23-8.496c1.388-.965 3.318-.965 4.707 0l4.646 3.228v3.162l-4.604-3.348c-1.402-1.02-3.39-1.02-4.793 0l-9.673 7.035c-.167.122-.365.186-.571.186h-.359zm25.03 21h-22v-19.503c.035-.023.072-.041.106-.065l9.673-7.035c.715-.518 1.727-.518 2.441 0l5.78 4.203v20.4h4z"/><path d="m45 25h10v2h-10z"/><path d="m45 29h10v2h-10z"/><path d="m37 33h18v2h-18z"/><path d="m37 37h18v2h-18z"/><path d="m53 41h2v2h-2z"/><path d="m49 41h2v2h-2z"/><path d="m37 41h10v2h-10z"/><path d="m32 45c.551 0 1 .448 1 1h2c0-1.302-.839-2.402-2-2.816v-2.184h-2v2h-2v3c0 1.654 1.346 3 3 3 .551 0 1 .448 1 1v1h-1c-.551 0-1-.448-1-1h-2c0 1.302.839 2.402 2 2.816v2.184h2v-2h2v-3c0-1.654-1.346-3-3-3-.551 0-1-.448-1-1v-1z"/></svg>