<svg id="Layer_35" enable-background="new 0 0 64 64" height="512" viewBox="0 0 64 64" width="512" xmlns="http://www.w3.org/2000/svg"><g fill="#f0bc5e"><path d="m40 10h18v4h-18z"/><path d="m40 18h18v4h-18z"/><path d="m40 26h18v4h-18z"/><path d="m11 46 10-10h-6l-10 10z"/><path d="m27 46 10-10h-6l-10 10z"/><path d="m43 46 10-10h-6l-10 10z"/><path d="m33 21h-6v-6h6z"/></g><path d="m63 8c0-1.654-1.346-3-3-3h-1.382l-2-4h-15.236l-2 4h-1.382c-1.654 0-3 1.346-3 3v3h-24v4.991l-6 1.189v17.82h-4v12h6v16h8v-16h20v8h8v8h8v-8h12zm-20.382-5h12.764l1 2h-14.764zm-17.618 32v-10h10v10zm-12-22h22v10h-12v12h-4v-20h-3l-3 .595zm-6 5.819 9.099-1.819h.901v18h-2v-14h-6v14h-2zm6 16.181h-2v-12h2zm-10 2h2 14 36v8h-52zm10 24h-4v-14h4zm24-8v-6h6v6zm8 8v-14h4v14zm16-8h-10v-6h6v-12h-20v-27c0-.552.449-1 1-1h22c.551 0 1 .448 1 1z"/><path d="m39 15h20v-6h-20zm8-2v-2h4v2zm10 0h-4v-2h4zm-16-2h4v2h-4z"/><path d="m39 23h20v-6h-20zm8-2v-2h4v2zm10 0h-4v-2h4zm-16-2h4v2h-4z"/><path d="m39 31h20v-6h-20zm8-2v-2h4v2zm10 0h-4v-2h4zm-16-2h4v2h-4z"/><path d="m33 33h-6v-6h6z" fill="#f0bc5e"/></svg>